HIERARCHY
ROOT Hips
{
	OFFSET 0.00000 0.00000 0.00000
	CHANNELS 6 Xposition Yposition Zposition Zrotation Yrotation Xrotation 
	JOINT LHipJoint
	{
		OFFSET 0 0 0
		CHANNELS 3 Zrotation Yrotation Xrotation
		JOINT LeftUpLeg
		{
			OFFSET 1.28858 -1.83292 1.03970
			CHANNELS 3 Zrotation Yrotation Xrotation
			JOINT LeftLeg
			{
				OFFSET 2.47846 -6.80952 0.00000
				CHANNELS 3 Zrotation Yrotation Xrotation
				JOINT LeftFoot
				{
					OFFSET 2.75274 -7.56311 0.00000
					CHANNELS 3 Zrotation Yrotation Xrotation
					JOINT LeftToeBase
					{
						OFFSET 0.12848 -0.35301 1.68223
						CHANNELS 3 Zrotation Yrotation Xrotation
						End Site
						{
							OFFSET 0.00000 -0.00000 0.87311
						}
					}
				}
			}
		}
	}
	JOINT RHipJoint
	{
		OFFSET 0 0 0
		CHANNELS 3 Zrotation Yrotation Xrotation
		JOINT RightUpLeg
		{
			OFFSET -1.31183 -1.83292 1.03970
			CHANNELS 3 Zrotation Yrotation Xrotation
			JOINT RightLeg
			{
				OFFSET -2.44740 -6.72417 0.00000
				CHANNELS 3 Zrotation Yrotation Xrotation
				JOINT RightFoot
				{
					OFFSET -2.67343 -7.34519 0.00000
					CHANNELS 3 Zrotation Yrotation Xrotation
					JOINT RightToeBase
					{
						OFFSET -0.16914 -0.46471 1.77626
						CHANNELS 3 Zrotation Yrotation Xrotation
						End Site
						{
							OFFSET -0.00000 -0.00000 0.92777
						}
					}
				}
			}
		}
	}
	JOINT LowerBack
	{
		OFFSET 0 0 0
		CHANNELS 3 Zrotation Yrotation Xrotation
		JOINT Spine
		{
			OFFSET 0.01249 2.14252 0.03842
			CHANNELS 3 Zrotation Yrotation Xrotation
			JOINT Spine1
			{
				OFFSET -0.02957 2.14199 -0.03751
				CHANNELS 3 Zrotation Yrotation Xrotation
				JOINT Neck
				{
					OFFSET 0 0 0
					CHANNELS 3 Zrotation Yrotation Xrotation
					JOINT Neck1
					{
						OFFSET -0.01678 1.65709 -0.05476
						CHANNELS 3 Zrotation Yrotation Xrotation
						JOINT Head
						{
							OFFSET 0.07912 1.58331 -0.11843
							CHANNELS 3 Zrotation Yrotation Xrotation
							End Site
							{
								OFFSET 0.03298 1.73940 -0.04271
							}
						}
					}
				}
				JOINT LeftShoulder
				{
					OFFSET 0 0 0
					CHANNELS 3 Zrotation Yrotation Xrotation
					JOINT LeftArm
					{
						OFFSET 3.39556 1.16496 0.08673
						CHANNELS 3 Zrotation Yrotation Xrotation
						JOINT LeftForeArm
						{
							OFFSET 5.23910 -0.00000 -0.00000
							CHANNELS 3 Zrotation Yrotation Xrotation
							JOINT LeftHand
							{
								OFFSET 3.31467 -0.00000 0.00000
								CHANNELS 3 Zrotation Yrotation Xrotation
								JOINT LeftFingerBase
								{
									OFFSET 0 0 0
									CHANNELS 3 Zrotation Yrotation Xrotation
									JOINT LeftHandIndex1
									{
										OFFSET 0.96590 -0.00000 0.00000
										CHANNELS 3 Zrotation Yrotation Xrotation
										End Site
										{
											OFFSET 0.77873 -0.00000 0.00000
										}
									}
								}
								JOINT LThumb
								{
									OFFSET 0 0 0
									CHANNELS 3 Zrotation Yrotation Xrotation
									End Site
									{
										OFFSET 0.79062 -0.00000 0.79062
									}
								}
							}
						}
					}
				}
				JOINT RightShoulder
				{
					OFFSET 0 0 0
					CHANNELS 3 Zrotation Yrotation Xrotation
					JOINT RightArm
					{
						OFFSET -3.27193 1.31331 0.33940
						CHANNELS 3 Zrotation Yrotation Xrotation
						JOINT RightForeArm
						{
							OFFSET -5.30252 -0.00000 0.00000
							CHANNELS 3 Zrotation Yrotation Xrotation
							JOINT RightHand
							{
								OFFSET -3.67875 -0.00000 0.00000
								CHANNELS 3 Zrotation Yrotation Xrotation
								JOINT RightFingerBase
								{
									OFFSET 0 0 0
									CHANNELS 3 Zrotation Yrotation Xrotation
									JOINT RightHandIndex1
									{
										OFFSET -0.59481 -0.00000 0.00000
										CHANNELS 3 Zrotation Yrotation Xrotation
										End Site
										{
											OFFSET -0.47955 -0.00000 0.00000
										}
									}
								}
								JOINT RThumb
								{
									OFFSET 0 0 0
									CHANNELS 3 Zrotation Yrotation Xrotation
									End Site
									{
										OFFSET -0.48687 -0.00000 0.48687
									}
								}
							}
						}
					}
				}
			}
		}
	}
}
MOTION
Frames: 9
Frame Time: .0083333
8.1585 1.7751 9.4227 -0.1201 12.2724 -95.9324 0.0000 0.0000 0.0000 -10.2484 -17.1388 -92.8637 12.7901 18.7051 68.4724 40.0827 12.6726 172.2432 0.0903 -1.9384 -5.3354 0.0000 0.0000 0.0000 -7.6477 19.5986 -109.3451 -10.9873 -17.9288 62.7402 140.2504 -10.3746 169.2292 -0.0379 -1.2566 3.4552 -6.9212 0.5153 20.5575 -2.1368 -0.2977 15.3948 1.6221 -0.6188 5.4809 -2.8406 -1.5639 -0.3558 2.5225 -2.1545 4.6001 1.2371 -1.0847 1.5542 0.0000 0.0000 0.0000 -75.7350 -23.2018 24.4876 65.6704 -57.6408 -39.0968 -0.0000 0.0000 -22.9498 57.7292 -26.2030 -34.9633 -7.1250 0.0000 -0.0000 15.6446 -11.3145 -19.0585 0.0000 0.0000 0.0000 79.5110 20.9168 17.4350 -87.9499 59.9841 -58.2246 0.0000 -0.0000 -9.5120 -41.5657 -32.5875 25.5293 7.1250 -0.0000 -0.0000 -14.9272 -69.9676 8.9788
8.1379 1.7429 9.3997 -0.3106 12.3423 -97.3004 0.0000 0.0000 0.0000 -9.1534 -17.5341 -95.4556 13.3440 18.9029 70.1906 40.2073 13.6308 173.2260 0.0779 1.8006 4.9550 0.0000 0.0000 0.0000 -8.3214 19.8945 -111.2326 -11.8360 -18.3205 65.4682 140.2601 -9.7820 169.3637 -0.0092 0.6192 -1.7016 -7.1727 0.6772 19.8791 -2.1208 -0.0689 15.0913 1.7481 -0.5148 5.4594 -2.6395 -1.6349 0.1917 2.4625 -2.2701 4.8655 1.1845 -1.1448 1.5424 -0.0000 -0.0000 0.0000 -75.2333 -26.0594 23.2253 72.5181 -58.8131 -44.9206 -0.0000 0.0000 -21.9213 57.9423 -26.6217 -35.5838 -7.1250 0.0000 -0.0000 15.6264 -11.9920 -19.1770 -0.0000 -0.0000 0.0000 79.0306 24.0437 15.4015 -93.6617 59.9493 -63.1705 0.0000 -0.0000 -8.3722 -43.9645 -32.3638 27.3067 7.1250 -0.0000 -0.0000 -19.3623 -70.4793 11.9257
8.1301 1.7414 9.4194 -0.5859 12.3690 -98.5542 0.0000 0.0000 0.0000 -7.7575 -17.9907 -98.4738 13.8861 19.0791 71.8563 40.5036 15.0097 176.5576 2.6027 10.0223 29.0490 0.0000 0.0000 0.0000 -9.1594 19.9431 -113.5012 -12.6449 -18.6502 68.0189 140.2859 -8.8283 169.4049 -0.0362 1.2274 -3.3748 -7.2017 0.7155 19.0073 -2.1619 0.0319 14.5386 1.7130 -0.4455 5.2532 -2.8952 -1.5872 1.2514 2.9723 -2.2568 5.0387 1.3974 -1.1434 1.4268 0.0000 0.0000 0.0000 -74.8060 -28.6649 22.0973 78.9773 -59.5359 -50.4690 -0.0000 0.0000 -20.7490 57.5163 -26.9466 -35.4419 -7.1250 0.0000 -0.0000 15.2998 -12.1129 -18.7734 0.0000 0.0000 0.0000 78.6230 26.6614 13.5606 -98.9683 59.6939 -67.7588 0.0000 -0.0000 -6.6839 -44.8185 -32.2159 27.9122 7.1250 -0.0000 -0.0000 -20.9943 -70.5831 13.0067
8.1207 1.7501 9.4504 0.0332 12.5679 -99.8022 0.0000 0.0000 0.0000 -6.6176 -17.3811 -101.4426 14.4270 19.2385 73.5043 40.6085 15.2703 178.3339 4.0191 12.1858 36.3924 0.0000 0.0000 0.0000 -10.0089 20.8660 -115.5848 -13.5288 -18.9648 70.7601 140.3233 -7.5154 169.3274 -0.0545 1.5061 -4.1426 -7.6426 1.0795 18.8542 -2.1879 0.4216 13.6693 1.8880 -0.2284 4.3170 -3.2425 -1.4739 2.4151 3.2465 -2.1626 5.5851 1.5540 -1.1099 1.4072 -0.0000 -0.0000 0.0000 -74.5895 -30.9982 20.9247 85.8584 -59.9351 -56.4141 -0.0000 0.0000 -19.7013 59.1661 -26.8669 -37.1288 -7.1250 0.0000 -0.0000 16.1926 -13.1600 -20.1707 -0.0000 -0.0000 0.0000 78.2553 29.0033 12.0222 -103.3924 59.3113 -71.5713 0.0000 -0.0000 -4.3979 -43.4942 -31.9419 26.6547 7.1250 -0.0000 -0.0000 -18.4298 -69.8585 11.0854
8.1161 1.7826 9.4674 0.9225 12.7946 -101.1390 0.0000 0.0000 0.0000 -5.6239 -16.3857 -104.1202 15.0450 19.4009 75.3722 40.5866 14.8431 178.6891 3.9643 12.1127 36.1319 0.0000 0.0000 0.0000 -10.6356 22.0087 -117.3502 -14.4794 -19.2530 73.6634 140.3621 -5.9169 169.1399 -0.1082 2.1210 -5.8401 -8.1787 1.3279 18.1803 -2.1387 0.7177 13.2525 2.2034 -0.1039 4.1738 -3.6006 -1.2851 2.9105 2.7062 -1.9201 6.3661 1.4481 -1.0096 1.5593 0.0000 0.0000 0.0000 -74.3605 -33.9338 18.9926 92.8115 -59.9701 -62.4346 -0.0000 0.0000 -18.4299 60.7866 -27.3485 -39.4049 -7.1250 0.0000 -0.0000 16.8877 -14.9669 -21.4843 0.0000 0.0000 0.0000 77.6752 32.2953 11.0690 -106.6470 58.9266 -74.3647 0.0000 -0.0000 -2.0531 -45.3810 -31.8413 28.1303 7.1250 -0.0000 -0.0000 -22.0131 -70.3398 13.5399
8.1011 1.8058 9.5020 1.0227 12.9634 -102.4500 0.0000 0.0000 0.0000 -4.7221 -16.0731 -106.8057 15.7138 19.5537 77.3779 40.6303 15.7892 177.8046 2.7855 10.3394 30.0830 0.0000 0.0000 0.0000 -11.2667 22.3475 -119.0996 -15.4442 -19.4949 76.5712 140.3741 -4.1287 169.1227 -0.1895 2.8036 -7.7323 -8.3454 1.5999 17.9783 -2.3336 1.0441 12.5310 2.0474 0.1073 3.4399 -2.4798 -1.4716 2.5933 1.6983 -2.1281 8.5264 0.9316 -1.1106 2.2882 0.0000 0.0000 0.0000 -73.8414 -36.4891 18.1741 99.5551 -59.6522 -68.2653 -0.0000 0.0000 -16.9105 62.1551 -28.2836 -41.8923 -7.1250 0.0000 -0.0000 17.2950 -17.1992 -22.4895 0.0000 0.0000 0.0000 77.5956 34.6267 9.3910 -110.3641 58.3736 -77.5395 0.0000 -0.0000 -0.2239 -46.4413 -31.2086 28.5861 7.1250 -0.0000 -0.0000 -23.9148 -69.9591 14.5524
8.0884 1.8470 9.5145 1.3877 13.0834 -104.2110 0.0000 0.0000 0.0000 -3.9703 -15.3834 -108.6628 16.6935 19.7358 80.2914 41.0138 20.3912 -161.0538 2.8535 10.4540 30.4599 0.0000 0.0000 0.0000 -11.4615 23.0234 -120.0384 -16.7137 -19.7391 80.3513 138.8972 18.3413 170.6649 -0.2067 2.9274 -8.0767 -8.5426 1.8134 18.3127 -2.4126 1.2405 12.1793 2.0391 0.2285 2.8617 -3.4731 -1.2199 3.3843 3.1977 -1.9050 7.9224 1.5917 -0.9999 1.9853 0.0000 0.0000 0.0000 -73.0941 -39.5395 16.4006 105.3939 -59.0854 -73.2906 -0.0000 0.0000 -14.9802 62.5122 -28.7443 -42.7467 -7.1250 0.0000 -0.0000 17.3258 -18.0492 -22.6922 0.0000 0.0000 0.0000 77.4048 37.1956 8.2032 -114.7515 57.5536 -81.2594 0.0000 0.0000 0.9870 -46.6725 -31.7399 29.1488 7.1250 -0.0000 -0.0000 -24.5744 -70.6287 15.3300
8.0775 1.8971 9.5237 1.7769 13.2015 -105.9940 0.0000 0.0000 0.0000 -3.3231 -14.6301 -110.2149 17.9413 19.8981 83.9711 39.0337 24.7418 -140.2132 2.0602 8.9903 25.7649 0.0000 0.0000 0.0000 -11.5376 23.7234 -120.7178 -18.1430 -19.9171 84.5634 133.5977 40.8259 172.9894 -0.2350 3.1199 -8.6127 -8.6779 2.0154 18.8850 -2.4881 1.4065 11.9273 1.9969 0.3363 2.2777 -2.1449 -1.3178 1.5695 0.9981 -1.8609 10.1176 0.6492 -0.9871 2.9855 0.0000 0.0000 0.0000 -71.9349 -42.8651 14.2710 110.5839 -58.3369 -77.7266 -0.0000 0.0000 -13.1020 63.4324 -30.0031 -44.9994 -7.1250 0.0000 -0.0000 17.3679 -20.3077 -23.1497 0.0000 0.0000 0.0000 76.8375 39.7451 6.8333 -119.2074 56.5175 -84.9986 0.0000 0.0000 1.6140 -45.6664 -32.4003 28.7423 7.1250 -0.0000 -0.0000 -22.7361 -71.0551 14.3549
8.0616 1.9556 9.5423 2.0091 13.3253 -107.6060 0.0000 0.0000 0.0000 -2.7217 -13.9964 -111.8405 19.0083 19.9764 87.0992 32.6602 26.4344 -117.6492 1.5704 7.9072 22.4324 0.0000 0.0000 0.0000 -11.7262 24.2276 -121.4937 -19.2412 -19.9862 87.7810 120.1863 63.3421 177.8260 -0.3160 3.6137 -9.9923 -8.6463 2.2353 19.3667 -2.7023 1.6398 11.7125 1.6998 0.4913 1.7803 -1.3272 -1.4036 0.4061 0.2563 -1.9132 11.0826 0.2566 -1.0092 3.5155 -0.0000 0.0000 0.0000 -70.6556 -45.5472 12.3785 117.2856 -56.9909 -83.3913 -0.0000 0.0000 -11.5291 62.2875 -31.5624 -44.8981 -7.1250 0.0000 -0.0000 16.2081 -21.1799 -21.6336 -0.0000 0.0000 0.0000 75.8973 42.4039 4.7443 -123.1432 55.4125 -88.2608 0.0000 0.0000 1.5303 -47.5193 -32.0868 30.1180 7.1250 -0.0000 -0.0000 -26.5012 -71.2778 16.9568
